# xmcd
#
# Track frame offsets:
#	1683
#	18459
#	36304
#	54225
#	73003
#	89649
#	104972
#	124003
#	140266
#	158894
#	177328
#	195204
#
# Disc length: 2840 seconds
#
# Revision: 0
# Processed by: cddbd v1.5.2PL0 Copyright (c) Steve Scherf et al.
# Submitted via: EasyCDDAExtractor 12.0.1.1
#
DISCID=a90b020c
DTITLE=Paul Carrack - I Know That Name
DYEAR=2009
DGENRE=Soul
TTITLE0=No doubt about it
TTITLE1=I don't want to hear anymore
TTITLE2=It ain't easy
TTITLE3=I don't want your love
TTITLE4=Ain't no love in the heart of the city
TTITLE5=Stay awake
TTITLE6=Just 4 tonite
TTITLE7=Love is thicker than water
TTITLE8=If I didn't love you
TTITLE9=Who am I ?
TTITLE10=Eyes of blue
TTITLE11=Am I in that dream ?
EXTD=
EXTT0=
EXTT1=
EXTT2=
EXTT3=
EXTT4=
EXTT5=
EXTT6=
EXTT7=
EXTT8=
EXTT9=
EXTT10=
EXTT11=
PLAYORDER=
